<svg width="215" height="284" viewBox="0 0 215 284" fill="none" xmlns="http://www.w3.org/2000/svg">
<path d="M0.200195 284V-1.52588e-05H112.6C182.6 -1.52588e-05 207 37.2 207 74.4C207 102.8 190.6 127.6 157.8 136.4C193 142.4 214.6 167.2 214.6 205.2C214.6 245.2 188.2 284 119.4 284H0.200195ZM51.8002 244.8H109.8C147.8 244.8 161.8 224.4 161.8 200.4C161.8 176 146.6 158 112.6 158H51.8002V244.8ZM51.8002 120H104.2C144.2 120 154.2 99.6 154.2 80C154.2 58.8 142.2 39.2 104.2 39.2H51.8002V120Z" fill="#FF4D00"/>
</svg>
